PathFileType	4	(X/Y/Z)	RBDS013static.trc
DataRate	CameraRate	NumFrames	NumMarkers	Units	OrigDataRate	OrigDataStartFrame	OrigNumFrames
150.000000	150.000000	4	48	mm	150.000000	56	150
Frame#	Time	L.Ankle			L.Ankle.Medial			L.ASIS			L.GTR			L.Heel.Bottom			L.Heel.Lateral			L.Heel.Top			L.HF			L.Iliac.Crest			L.Knee			L.Knee.Medial			L.MT1			L.MT2			L.MT5			L.PSIS			L.Shank.Bottom.Lateral			L.Shank.Bottom.Medial			L.Shank.Top.Lateral			L.Shank.Top.Medial			L.Thigh.Bottom.Lateral			L.Thigh.Bottom.Medial			L.Thigh.Top.Lateral			L.Thigh.Top.Medial			L.TT			R.Ankle			R.Ankle.Medial			R.ASIS			R.GTR			R.Heel.Bottom			R.Heel.Lateral			R.Heel.Top			R.HF			R.Iliac.Crest			R.Knee			R.Knee.Medial			R.MT1			R.MT2			R.MT5			R.PSIS			R.Shank.Bottom.Lateral			R.Shank.Bottom.Medial			R.Shank.Top.Lateral			R.Shank.Top.Medial			R.Thigh.Bottom.Lateral			R.Thigh.Bottom.Medial			R.Thigh.Top.Lateral			R.Thigh.Top.Medial			R.TT			
		X1	Y1	Z1	X2	Y2	Z2	X3	Y3	Z3	X4	Y4	Z4	X5	Y5	Z5	X6	Y6	Z6	X7	Y7	Z7	X8	Y8	Z8	X9	Y9	Z9	X10	Y10	Z10	X11	Y11	Z11	X12	Y12	Z12	X13	Y13	Z13	X14	Y14	Z14	X15	Y15	Z15	X16	Y16	Z16	X17	Y17	Z17	X18	Y18	Z18	X19	Y19	Z19	X20	Y20	Z20	X21	Y21	Z21	X22	Y22	Z22	X23	Y23	Z23	X24	Y24	Z24	X25	Y25	Z25	X26	Y26	Z26	X27	Y27	Z27	X28	Y28	Z28	X29	Y29	Z29	X30	Y30	Z30	X31	Y31	Z31	X32	Y32	Z32	X33	Y33	Z33	X34	Y34	Z34	X35	Y35	Z35	X36	Y36	Z36	X37	Y37	Z37	X38	Y38	Z38	X39	Y39	Z39	X40	Y40	Z40	X41	Y41	Z41	X42	Y42	Z42	X43	Y43	Z43	X44	Y44	Z44	X45	Y45	Z45	X46	Y46	Z46	X47	Y47	Z47	X48	Y48	Z48	

57	0.3733333333333334	705.7400512695313	102.67822265625	1048.56396484375	723.54833984375	115.4585189819336	1129.869506835938	814.1427612304688	938.4784545898438	1112.322265625	735.626220703125	849.6190795898438	1064.960205078125	632.9291381835938	40.0924186706543	1092.461181640625	656.4066162109375	64.19929504394531	1051.205932617188	641.6492919921875	87.36048889160156	1091.946044921875	742.6982421875	437.3871459960938	1058.156372070313	756.8936157226563	1002.088500976563	1082.183959960938	745.6554565429688	493.7061462402344	1062.206787109375	736.9327392578125	479.5287780761719	1183.429565429688	842.2439575195313	60.04956817626953	1128.609130859375	853.8858642578125	71.80847930908203	1086.13427734375	814.5742797851563	44.33020401000977	1020.465454101563	652.91162109375	973.5496215820313	1184.906616210938	701.9968872070313	176.6977996826172	1044.616455078125	661.0680541992188	176.5185241699219	1081.866821289063	694.7482299804688	257.0223083496094	1038.798583984375	656.0947265625	257.4320068359375	1076.2275390625	764.3883666992188	592.8366088867188	1045.4521484375	698.5355224609375	590.0155029296875	1077.52099609375	753.257080078125	702.4612426757813	1039.85791015625	691.9828491210938	700.2675170898438	1071.034545898438	785.0523681640625	414.7757263183594	1099.86572265625	712.116455078125	101.9858474731445	1413.55126953125	732.6433715820313	115.0821838378906	1333.2431640625	822.7926025390625	940.9429321289063	1348.618041992188	755.0684204101563	851.4750366210938	1401.504638671875	638.3529052734375	40.55545425415039	1370.637451171875	662.54541015625	61.15311050415039	1410.395874023438	646.9752197265625	91.53193664550781	1369.85595703125	747.2520141601563	436.7509155273438	1406.633666992188	772.1142578125	1003.826232910156	1380.065551757813	743.248291015625	501.3544311523438	1401.440063476563	743.2105102539063	479.5128479003906	1281.631713867188	845.3179931640625	58.97138595581055	1331.363159179688	852.3493041992188	77.70133209228516	1365.177001953125	819.1171264648438	52.15150833129883	1441.655395507813	654.031005859375	974.5784912109375	1285.47900390625	700.4220581054688	172.7874298095703	1416.928588867188	664.707275390625	174.6392974853516	1380.040283203125	696.3472900390625	257.3984680175781	1423.236206054688	658.8617553710938	255.173583984375	1384.584838867188	749.11083984375	628.6036987304688	1418.77783203125	691.9983520507813	621.037109375	1372.686645507813	733.9324951171875	737.21435546875	1414.933837890625	680.7111206054688	730.9376220703125	1370.509765625	787.912841796875	413.072509765625	1367.39990234375	
58	0.38	705.7493896484375	102.675537109375	1048.55615234375	723.5494384765625	115.4469375610352	1129.864501953125	814.1324462890625	938.4722290039063	1112.330444335938	735.6170654296875	849.616455078125	1064.962524414063	632.9346313476563	40.08709716796875	1092.470458984375	656.414306640625	64.20517730712891	1051.200805664063	641.658203125	87.36348724365234	1091.942016601563	742.6752319335938	437.3826293945313	1058.154418945313	756.8772583007813	1002.091735839844	1082.180541992188	745.6376953125	493.7128295898438	1062.210327148438	736.91943359375	479.5224304199219	1183.4326171875	842.2387084960938	60.05708694458008	1128.613159179688	853.8937377929688	71.80719757080078	1086.139770507813	814.569091796875	44.33160400390625	1020.47119140625	652.9033813476563	973.5392456054688	1184.905883789063	701.98681640625	176.7021789550781	1044.62548828125	661.0631713867188	176.5125885009766	1081.867065429688	694.7369384765625	257.0318603515625	1038.79541015625	656.097900390625	257.4208068847656	1076.2314453125	764.3712158203125	592.8280639648438	1045.449462890625	698.527099609375	590.0234375	1077.518432617188	753.2413330078125	702.45703125	1039.859619140625	691.9688720703125	700.27685546875	1071.036499023438	785.0439453125	414.7852478027344	1099.859497070313	712.1214599609375	101.9711456298828	1413.536865234375	732.6474609375	115.0760192871094	1333.26025390625	822.7808837890625	940.9413452148438	1348.621948242188	755.0623779296875	851.474853515625	1401.502685546875	638.3494873046875	40.55814361572266	1370.62353515625	662.5420532226563	61.15963745117188	1410.396118164063	646.976806640625	91.52781677246094	1369.862548828125	747.4637451171875	436.6882934570313	1406.053100585938	772.11572265625	1003.821899414063	1380.058349609375	743.2356567382813	501.3489379882813	1401.436401367188	743.2236328125	479.5106811523438	1281.629516601563	845.3187255859375	58.97879409790039	1331.362426757813	852.3582153320313	77.70229339599609	1365.176147460938	819.1207885742188	52.15211868286133	1441.656982421875	654.025634765625	974.5726318359375	1285.46435546875	700.4202270507813	172.7842102050781	1416.924560546875	664.7156372070313	174.6327514648438	1380.04296875	696.3368530273438	257.3931274414063	1423.23388671875	658.8555908203125	255.1750183105469	1384.5869140625	749.0958251953125	628.6041870117188	1418.7685546875	691.9927978515625	621.0419921875	1372.680541992188	733.9204711914063	737.2150268554688	1414.927001953125	680.6995849609375	730.9375610351563	1370.501098632813	787.9151000976563	413.0682067871094	1367.40283203125	
59	0.3866666666666667	705.7399291992188	102.6925888061523	1048.543701171875	723.5400390625	115.4564361572266	1129.859985351563	814.1283569335938	938.4781494140625	1112.332885742188	735.622802734375	849.6226806640625	1064.964477539063	632.939208984375	40.08769226074219	1092.468017578125	656.4085693359375	64.19615936279297	1051.194091796875	641.660400390625	87.35335540771484	1091.9541015625	742.6522827148438	437.3928833007813	1058.155151367188	756.8746337890625	1002.099487304688	1082.173583984375	745.6249389648438	493.7174072265625	1062.204833984375	736.902099609375	479.5301818847656	1183.424682617188	842.2428588867188	60.05678176879883	1128.616821289063	853.8920288085938	71.80713653564453	1086.141723632813	814.5784301757813	44.33848190307617	1020.470703125	652.8986206054688	973.5347900390625	1184.9169921875	701.9788818359375	176.6919708251953	1044.617919921875	661.060546875	176.501220703125	1081.862670898438	694.729248046875	257.0213317871094	1038.79833984375	656.0838012695313	257.4147033691406	1076.250366210938	764.359375	592.8316040039063	1045.454711914063	698.4999389648438	590.0252685546875	1077.524169921875	753.2337646484375	702.451904296875	1039.862182617188	691.9662475585938	700.2720336914063	1071.035400390625	785.0236206054688	414.7808532714844	1099.852783203125	712.1116943359375	101.9821548461914	1413.53515625	732.6521606445313	115.0788345336914	1333.251708984375	822.7706298828125	940.9395751953125	1348.626586914063	755.0488891601563	851.4732055664063	1401.513793945313	638.350341796875	40.55342864990234	1370.630249023438	662.5455322265625	61.15401840209961	1410.389404296875	646.9754638671875	91.52792358398438	1369.858276367188	747.2403564453125	436.7487182617188	1406.615844726563	772.11083984375	1003.815612792969	1380.076538085938	743.224853515625	501.3562927246094	1401.433837890625	743.216796875	479.5074462890625	1281.62158203125	845.3230590820313	58.98361587524414	1331.334838867188	852.3547973632813	77.71240234375	1365.165283203125	819.1199340820313	52.15920639038086	1441.65283203125	654.0114135742188	974.5745239257813	1285.501586914063	700.4117431640625	172.7889709472656	1416.927490234375	664.7077026367188	174.6296234130859	1380.037231445313	696.3388061523438	257.3936462402344	1423.230834960938	658.8538818359375	255.1683654785156	1384.578979492188	749.0851440429688	628.6011352539063	1418.769165039063	691.9869384765625	621.0267944335938	1372.648559570313	733.9014282226563	737.2159423828125	1414.920043945313	680.686767578125	730.931884765625	1370.492919921875	787.902099609375	413.0721130371094	1367.399658203125	
60	0.3933333333333334	705.73876953125	102.6755218505859	1048.560668945313	723.5302124023438	115.4540023803711	1129.85888671875	814.122314453125	938.4663696289063	1112.343383789063	735.61572265625	849.6103515625	1064.9658203125	632.9328002929688	40.08837127685547	1092.46630859375	656.4024658203125	64.20394897460938	1051.195434570313	641.6578979492188	87.34895324707031	1091.950805664063	742.6451416015625	437.3891296386719	1058.159423828125	756.8688354492188	1002.095153808594	1082.182006835938	745.596923828125	493.7164306640625	1062.209106445313	736.8762817382813	479.5327453613281	1183.432250976563	842.2415161132813	60.05498886108398	1128.605834960938	853.8872680664063	71.81803894042969	1086.14697265625	814.5782470703125	44.33525848388672	1020.464477539063	652.88525390625	973.5383911132813	1184.905639648438	701.9691162109375	176.6883544921875	1044.609985351563	661.0556640625	176.5080413818359	1081.864868164063	694.7266845703125	257.0214233398438	1038.803833007813	656.076904296875	257.4113159179688	1076.250732421875	764.3448486328125	592.8281860351563	1045.460327148438	698.4876708984375	590.024658203125	1077.525146484375	753.223388671875	702.4542236328125	1039.861328125	691.9473266601563	700.2728271484375	1071.033081054688	785.0181274414063	414.7925720214844	1099.858764648438	712.1219482421875	101.9862594604492	1413.533813476563	732.6471557617188	115.0870819091797	1333.241455078125	822.7623291015625	940.929443359375	1348.63525390625	755.0430908203125	851.4668579101563	1401.506958007813	638.3491821289063	40.55173492431641	1370.636352539063	662.541015625	61.16036224365234	1410.391967773438	646.977294921875	91.52937316894531	1369.859985351563	747.2380981445313	436.759033203125	1406.64306640625	772.109619140625	1003.81396484375	1380.071044921875	743.217041015625	501.351806640625	1401.43359375	743.2007446289063	479.4954223632813	1281.621704101563	845.3244018554688	58.97783660888672	1331.365478515625	852.357177734375	77.70626068115234	1365.167358398438	819.1249389648438	52.15607070922852	1441.656982421875	653.9950561523438	974.5745239257813	1285.490234375	700.4051513671875	172.7707977294922	1416.928466796875	664.7040405273438	174.6269836425781	1380.032958984375	696.327392578125	257.3941345214844	1423.227416992188	658.8575439453125	255.1622619628906	1384.57763671875	749.0736083984375	628.598388671875	1418.772094726563	691.9785766601563	621.0362548828125	1372.662475585938	733.8865356445313	737.2103271484375	1414.917114257813	680.6788330078125	730.9224853515625	1370.478881835938	787.9047241210938	413.0749816894531	1367.403442382813	
